<?xml version="1.0" encoding="utf-8"?>
<!-- Generator: Adobe Illustrator 19.2.1, SVG Export Plug-In . SVG Version: 6.00 Build 0)  -->
<svg version="1.1" id="layer" xmlns="http://www.w3.org/2000/svg" xmlns:xlink="http://www.w3.org/1999/xlink" x="0px" y="0px"
	 viewBox="0 0 652 652" style="enable-background:new 0 0 652 652;" xml:space="preserve">
<style type="text/css">
	.st0{fill:#D75F00;}
</style>
<path class="st0" d="M614.2,271.7c1.3,0,2.1-0.7,2.1-1.8c0-1-0.5-1.8-2.1-1.8c-0.4,0-0.7,0-1.1,0.1v3.5H614.2z M613.9,265.5
	c3.9,0,5.9,1.6,5.9,4c0,1.8-0.8,3-2.4,3.9l2,3c0.5,0.7,1.1,1.6,1.3,1.8l-3.8,0.2l-2.5-4.1h-1.2v2c0,0.8,0,1.4,0.1,1.9h-3.7
	c0.1-0.8,0.1-3.1,0.1-4.3v-4c0-1.1,0-3.4-0.1-4.3C610.2,265.6,613.1,265.5,613.9,265.5z M614.4,261.4c-5.8,0-10.3,4.8-10.3,10.7
	c0,5.9,4.5,10.7,10.3,10.7c5.8,0,10.3-4.8,10.3-10.7C624.7,266.1,620.2,261.4,614.4,261.4z M614.4,284.8c-6.9,0-12.5-5.7-12.5-12.8
	c0-7.1,5.6-12.8,12.5-12.8c6.9,0,12.5,5.7,12.5,12.8C626.9,279.1,621.3,284.8,614.4,284.8z M579.8,331.9h-28.2l14-36.2L579.8,331.9z
	 M69.7,331.9l14-36.3l14.2,36.3H69.7z M187.5,316.6h-12.7v-25.9c0-2.7,0-5.6,0.2-9.3l10.5-0.1c15.1,0,21.7,6.4,21.7,17.6
	C207.3,308.9,199.8,316.6,187.5,316.6z M149.2,282.1v53.5c0.2,10.5,0,31-0.9,38.9h27.3c-0.6-4.4-0.6-16.9-0.6-23.3v-16h13.6
	c23,59.1,66.5,82.5,110.2,82.5c17.2,0,34.5-3.7,50.6-10.3l-6.9-17.6c-12.7,5.9-26.7,9-40.7,9c-34.9,0-70.6-20.2-91.1-70.7
	c14-7.5,21.5-17.6,21.7-33.2c0.2-20.6-17-34.7-49.3-34.5c-7.1,0-29.1,1.1-34.9,1.1c-5.6,0-16.8,0-24.3-0.2
	c0.7,7.2,0.9,14.7,0.7,21.7C132.2,282.8,140.8,282.4,149.2,282.1z M494.1,351.3v-57.7c0-2.4,0-6.8,0.2-10.1
	c12.9,0,22.2,0.2,33.6,0.4c0-8.8,0.6-16.2,1.3-23.5c-29.1,0.7-56.6,0.9-82.5,0.9c-26.7,0-54.5,0-80.9-0.9c0.9,7.7,1.1,28.8,1.1,39.3
	v36.4c0,10.3-0.2,31.2-1.1,39.1c11-0.7,24.5-0.9,37.5-0.9c12.1,0,26.3,0.2,36.6,0.9c0.2-8.1,0.4-15.4,1.1-22.2
	c-10.1,0.4-21.7,0.7-33.8,0.7c-4.5,0-9.7-0.2-14.4-0.2c-0.2-2.4-0.2-5.7-0.2-7.7v-20.2h38.1c0-7,0-13.4,0.4-19.3h-38.5v-15.6
	c0-2,0-5.1,0.2-7.7c11.8-0.2,24.5-0.2,35.5-0.2c11.2,0,26.7,0.2,39.4,0.4c0.4,8.6,0.7,18.4,0.7,24.6v27.9c0,10.5-0.4,31-1.3,38.9
	h27.8C494.1,370.1,494.1,357.4,494.1,351.3z M609.7,341.4l-36-82.3l-15.7,1.8c-3,9-7.1,17.8-12.9,31.2l-36.4,82.5h26.5
	c2.6-6.4,6.9-18,9.7-24.6h41.6l11,25.9l27.6-1.3C620,364.4,614,351.3,609.7,341.4z M346.4,365.5v-16c0-10.3,0.2-32.3,1.1-38.4
	c-10.6,0.4-15.7,0.7-28,0.7c-6.9,0-11.8-0.2-21.1-0.7c0.2,5.5,0.2,12.3-0.2,19.5c7.1-0.4,11-0.4,17-0.4c4.5,0,4.1,0,8,0.2
	c0.2,2.4,0.2,6.6,0.2,8.6v13.4c-5.2,2.2-10.8,3.3-17,3.3c-19.6,0-35.1-13.6-35.1-38c0-20.6,15.3-36.9,37.9-36.9
	c10.8,0,21.1,4.2,29.1,9.7l6.9-21.3c-8.8-6.1-22-10.5-37-10.5c-36.8,0-62.7,27-62.7,62.1c0,31,23.3,56.9,57.3,56.9
	C319.9,377.6,334.1,373.2,346.4,365.5z M127.9,341.4l-36.4-83.6c-5-11.4-14.6-21.1-28.9-23.3L53.2,256c11.1,1.8,15.7,8.1,19.1,15.3
	c-2.4,5.9-5.4,12.5-9,20.7l-36.4,82.5h26.5c2.6-6.4,6.9-18,9.7-24.6h41.6l10.9,25.9l27.6-1.3C138.2,364.4,132.2,351.3,127.9,341.4z"
	/>
</svg>
